<svg width="102" height="32" viewBox="0 0 102 32" fill="none" xmlns="http://www.w3.org/2000/svg">
<rect x="0.957581" width="101.042" height="31.9081" rx="4.5583" fill="#3E8600"/>
<path d="M53.011 16.8362C51.5513 16.8362 50.3615 17.9465 50.3615 19.4758C50.3615 20.9957 51.5513 22.1153 53.011 22.1153C54.4713 22.1153 55.6611 20.9957 55.6611 19.4758C55.6605 17.9465 54.4707 16.8362 53.011 16.8362ZM53.011 21.0764C52.211 21.0764 51.5215 20.4167 51.5215 19.4764C51.5215 18.5262 52.2116 17.8764 53.011 17.8764C53.811 17.8764 54.5005 18.5262 54.5005 19.4764C54.5005 20.416 53.811 21.0764 53.011 21.0764ZM47.2304 16.8362C45.7707 16.8362 44.5809 17.9465 44.5809 19.4758C44.5809 20.9957 45.7707 22.1153 47.2304 22.1153C48.6907 22.1153 49.8805 20.9957 49.8805 19.4758C49.8805 17.9465 48.6907 16.8362 47.2304 16.8362ZM47.2304 21.0764C46.4304 21.0764 45.7409 20.4167 45.7409 19.4764C45.7409 18.5262 46.431 17.8764 47.2304 17.8764C48.0304 17.8764 48.7199 18.5262 48.7199 19.4764C48.7205 20.416 48.0304 21.0764 47.2304 21.0764ZM40.355 17.6468V18.7664H43.0349C42.9548 19.3963 42.7451 19.8562 42.4248 20.1759C42.0351 20.5656 41.425 20.9957 40.355 20.9957C38.7053 20.9957 37.4157 19.6657 37.4157 18.016C37.4157 16.3664 38.7053 15.0364 40.355 15.0364C41.245 15.0364 41.8948 15.3864 42.3745 15.8364L43.1646 15.0463C42.4943 14.4064 41.605 13.9167 40.355 13.9167C38.0953 13.9167 36.1955 15.7563 36.1955 18.016C36.1955 20.2758 38.0953 22.1153 40.355 22.1153C41.5745 22.1153 42.4949 21.715 43.2143 20.9653C43.9541 20.2255 44.1843 19.1853 44.1843 18.3456C44.1843 18.0862 44.1645 17.846 44.1241 17.6461H40.355V17.6468ZM68.4747 18.5163C68.255 17.9267 67.5847 16.8362 66.215 16.8362C64.8552 16.8362 63.725 17.9062 63.725 19.4758C63.725 20.9554 64.8453 22.1153 66.3447 22.1153C67.5543 22.1153 68.2544 21.3755 68.5449 20.9454L67.6449 20.3453C67.3452 20.7853 66.9349 21.0752 66.3447 21.0752C65.7551 21.0752 65.3349 20.8052 65.065 20.2752L68.5945 18.8154L68.4747 18.5163ZM64.8751 19.3963C64.8453 18.376 65.6651 17.8565 66.2553 17.8565C66.7152 17.8565 67.105 18.0868 67.2353 18.4164L64.8751 19.3963ZM62.0059 21.9558H63.1652V14.1973H62.0059V21.9558ZM60.1055 17.4264H60.0657C59.8057 17.1161 59.3055 16.8362 58.6761 16.8362C57.3561 16.8362 56.1464 17.9962 56.1464 19.4863C56.1464 20.9659 57.3561 22.116 58.6761 22.116C59.3061 22.116 59.8057 21.8361 60.0657 21.5164H60.1055V21.8963C60.1055 22.906 59.5655 23.446 58.696 23.446C57.986 23.446 57.546 22.9364 57.366 22.5063L56.3562 22.9265C56.646 23.626 57.4156 24.4862 58.696 24.4862C60.0558 24.4862 61.2059 23.6862 61.2059 21.7361V16.997H60.1061V17.4264H60.1055ZM58.7761 21.0764C57.9761 21.0764 57.3064 20.4061 57.3064 19.4863C57.3064 18.556 57.9761 17.8764 58.7761 17.8764C59.5655 17.8764 60.1855 18.556 60.1855 19.4863C60.1855 20.4061 59.5655 21.0764 58.7761 21.0764ZM73.9078 14.1973H71.1329V21.9558H72.2904V19.0165H73.9072C75.1906 19.0165 76.453 18.0874 76.453 16.6072C76.453 15.127 75.1912 14.1973 73.9078 14.1973ZM73.9376 17.9366H72.2904V15.2772H73.9376C74.8034 15.2772 75.2949 15.994 75.2949 16.6072C75.2949 17.208 74.8034 17.9366 73.9376 17.9366ZM81.0947 16.8226C80.2563 16.8226 79.388 17.1918 79.0286 18.0105L80.0564 18.4393C80.2761 18.0105 80.6857 17.8702 81.1146 17.8702C81.7135 17.8702 82.3223 18.2295 82.3323 18.8682V18.9482C82.1225 18.8285 81.6732 18.6491 81.1245 18.6491C80.0167 18.6491 78.8884 19.2579 78.8884 20.3956C78.8884 21.4339 79.797 22.1023 80.8148 22.1023C81.5931 22.1023 82.0226 21.7529 82.2919 21.3433H82.3317V21.9422H83.45V18.9675C83.4507 17.5909 82.4217 16.8226 81.0947 16.8226ZM80.9545 21.0745C80.5759 21.0745 80.0465 20.8846 80.0465 20.4154C80.0465 19.8165 80.7056 19.5869 81.2747 19.5869C81.783 19.5869 82.0232 19.6967 82.3323 19.8463C82.2423 20.5656 81.6235 21.0745 80.9545 21.0745ZM87.5227 16.992L86.1951 20.3558H86.1554L84.7776 16.992H83.5301L85.5962 21.6933L84.4182 24.3087H85.626L88.8105 16.992H87.5227ZM77.0923 21.9558H78.2497V14.1973H77.0923V21.9558Z" fill="white"/>
<path d="M40.1514 9.69364C40.1514 10.2137 39.9975 10.6277 39.6891 10.9368C39.339 11.3042 38.8822 11.4879 38.3212 11.4879C37.7837 11.4879 37.3263 11.3017 36.9508 10.9293C36.5747 10.5563 36.3867 10.0946 36.3867 9.54345C36.3867 8.99171 36.5747 8.52995 36.9508 8.15757C37.3263 7.78457 37.7837 7.59838 38.3212 7.59838C38.5881 7.59838 38.8431 7.65051 39.0852 7.75416C39.3278 7.85843 39.5221 7.99683 39.6673 8.16999L39.3403 8.49768C39.0939 8.20288 38.7544 8.05579 38.3206 8.05579C37.9283 8.05579 37.5894 8.19357 37.3033 8.46913C37.0172 8.74469 36.8745 9.1028 36.8745 9.54283C36.8745 9.98286 37.0172 10.341 37.3033 10.6165C37.5894 10.8921 37.9283 11.0299 38.3206 11.0299C38.7364 11.0299 39.0833 10.8915 39.3607 10.614C39.5407 10.4334 39.645 10.1821 39.6729 9.85997H38.3206V9.4125H40.1247C40.1434 9.50994 40.1514 9.60365 40.1514 9.69364Z" fill="white"/>
<path d="M43.0126 8.13837H41.317V9.31882H42.8463V9.76629H41.317V10.9467H43.0126V11.4048H40.8385V7.68096H43.0126V8.13837Z" fill="white"/>
<path d="M45.0302 11.4048H44.5517V8.13837H43.5115V7.68096H46.0704V8.13837H45.0302V11.4048Z" fill="white"/>
<path d="M47.9217 11.4048V7.68096H48.4003V11.4048H47.9217Z" fill="white"/>
<path d="M50.5223 11.4048H50.0438V8.13837H49.0036V7.68096H51.5625V8.13837H50.5223V11.4048Z" fill="white"/>
<path d="M56.4064 10.9238C56.0402 11.2999 55.5853 11.4879 55.041 11.4879C54.4967 11.4879 54.0418 11.2999 53.6762 10.9238C53.3101 10.5477 53.1276 10.0872 53.1276 9.54286C53.1276 8.99856 53.3101 8.53805 53.6762 8.16195C54.0418 7.78584 54.4967 7.59717 55.041 7.59717C55.5822 7.59717 56.0365 7.78646 56.4039 8.16443C56.7714 8.5424 56.9551 9.00167 56.9551 9.54286C56.9551 10.0872 56.772 10.5477 56.4064 10.9238ZM54.0294 10.6116C54.3049 10.8909 54.6419 11.0299 55.041 11.0299C55.4401 11.0299 55.7777 10.8903 56.0527 10.6116C56.3282 10.3323 56.4666 9.97606 56.4666 9.54286C56.4666 9.10966 56.3282 8.75341 56.0527 8.47413C55.7777 8.19484 55.4401 8.05582 55.041 8.05582C54.6419 8.05582 54.3049 8.19546 54.0294 8.47413C53.7544 8.75341 53.616 9.10966 53.616 9.54286C53.616 9.97606 53.7544 10.3323 54.0294 10.6116Z" fill="white"/>
<path d="M57.6266 11.4048V7.68096H58.2088L60.0185 10.5775H60.039L60.0185 9.86001V7.68096H60.497V11.4048H59.9974L58.1039 8.36738H58.0834L58.1039 9.08484V11.4048H57.6266Z" fill="white"/>
<path fill-rule="evenodd" clip-rule="evenodd" d="M16.998 8.34908C16.9421 8.50159 16.9117 8.68181 16.9117 8.88698V22.6129C16.9117 22.8183 16.9421 22.9985 16.9979 23.1508L24.3983 15.7494L16.998 8.34908ZM17.5302 23.6929C17.7961 23.7765 18.1288 23.7275 18.4887 23.5234L27.2141 18.5652L24.9355 16.2866L17.5302 23.6929ZM27.8996 18.1763L30.5917 16.6468C31.4587 16.1534 31.4587 15.3472 30.5917 14.8544L27.8979 13.3237L25.4727 15.7493L27.8996 18.1763ZM27.2129 12.9344L18.4887 7.97714C18.129 7.77272 17.7965 7.72387 17.5307 7.80735L24.9355 15.2121L27.2129 12.9344Z" fill="white"/>
</svg>
